<svg xmlns="http://www.w3.org/2000/svg" xmlns:xlink="http://www.w3.org/1999/xlink" viewBox="0 0 144 90" width="144" height="90" preserveAspectRatio="xMidYMid meet" style="width: 100%; height: 100%; transform: translate3d(0px, 0px, 0px); content-visibility: visible;"><defs><clipPath id="__lottie_element_4"><rect width="144" height="90" x="0" y="0"></rect></clipPath><clipPath id="__lottie_element_6"><path d="M0,0 L300,0 L300,336 L0,336z"></path></clipPath><filter id="__lottie_element_29" x="0%" y="0%" width="100%" height="100%"><feGaussianBlur in="SourceAlpha" result="filter_result_0_drop_shadow_1" stdDeviation="0.5"></feGaussianBlur><feOffset dx="0" dy="0" in="filter_result_0_drop_shadow_1" result="filter_result_0_drop_shadow_2"></feOffset><feFlood flood-color="#000000" flood-opacity="0.15" result="filter_result_0_drop_shadow_3"></feFlood><feComposite in="filter_result_0_drop_shadow_3" in2="filter_result_0_drop_shadow_2" operator="in" result="filter_result_0_drop_shadow_4"></feComposite><feMerge result="filter_result_0"><feMergeNode in="filter_result_0_drop_shadow_4"></feMergeNode><feMergeNode in="SourceGraphic"></feMergeNode></feMerge></filter><g id="__lottie_element_33"><g transform="matrix(5.96999979019165,0,0,5.96999979019165,81.375,234.95899963378906)" opacity="1" style="display: block;"><g opacity="1" transform="matrix(0.3337000012397766,0,0,0.3337000012397766,0,0)"><path fill="rgb(215,215,215)" fill-opacity="1" d=" M19.5,-18.5 C19.5,-18.5 19.5,18.5 19.5,18.5 C19.5,19.05190086364746 19.05190086364746,19.5 18.5,19.5 C18.5,19.5 -18.5,19.5 -18.5,19.5 C-19.05190086364746,19.5 -19.5,19.05190086364746 -19.5,18.5 C-19.5,18.5 -19.5,-18.5 -19.5,-18.5 C-19.5,-19.05190086364746 -19.05190086364746,-19.5 -18.5,-19.5 C-18.5,-19.5 18.5,-19.5 18.5,-19.5 C19.05190086364746,-19.5 19.5,-19.05190086364746 19.5,-18.5z"></path></g></g></g><clipPath id="__lottie_element_37"><path d="M0,0 L300,0 L300,336 L0,336z"></path></clipPath><mask id="__lottie_element_33_1" mask-type="alpha"><use xlink:href="#__lottie_element_33"></use></mask></defs><g clip-path="url(#__lottie_element_4)"><g clip-path="url(#__lottie_element_6)" transform="matrix(0.5,0,0,0.5,-3,-75)" opacity="1" style="display: block;"><g mask="url(#__lottie_element_33_1)" style="display: block;"><g clip-path="url(#__lottie_element_37)" transform="matrix(1,0,0,1,0,0)" opacity="1"><g transform="matrix(1,0,0,1,61,215)" opacity="1" style="display: block;"><g opacity="1" transform="matrix(2,0,0,2,0,0)"><path fill="rgb(106,200,110)" fill-opacity="1" d=" M9.5,-9.5 C9.5,-9.5 9.5,9.5 9.5,9.5 C9.5,9.5 -9.5,9.5 -9.5,9.5 C-9.5,9.5 -9.5,-9.5 -9.5,-9.5 C-9.5,-9.5 9.5,-9.5 9.5,-9.5z"></path></g></g><g transform="matrix(1,0,0,1,101,215)" opacity="1" style="display: block;"><g opacity="1" transform="matrix(2,0,0,2,0,0)"><path fill="rgb(106,200,110)" fill-opacity="1" d=" M9.5,-9.5 C9.5,-9.5 9.5,9.5 9.5,9.5 C9.5,9.5 -9.5,9.5 -9.5,9.5 C-9.5,9.5 -9.5,-9.5 -9.5,-9.5 C-9.5,-9.5 9.5,-9.5 9.5,-9.5z"></path></g></g><g transform="matrix(1,0,0,1,61,255)" opacity="1" style="display: block;"><g opacity="1" transform="matrix(2,0,0,2,0,0)"><path fill="rgb(14,171,54)" fill-opacity="1" d=" M9.5,-9.5 C9.5,-9.5 9.5,9.5 9.5,9.5 C9.5,9.5 -9.5,9.5 -9.5,9.5 C-9.5,9.5 -9.5,-9.5 -9.5,-9.5 C-9.5,-9.5 9.5,-9.5 9.5,-9.5z"></path></g></g><g transform="matrix(1,0,0,1,101,255)" opacity="1" style="display: block;"><g opacity="1" transform="matrix(2,0,0,2,0,0)"><path fill="rgb(106,201,111)" fill-opacity="1" d=" M9.5,-9.5 C9.5,-9.5 9.5,9.5 9.5,9.5 C9.5,9.5 -9.5,9.5 -9.5,9.5 C-9.5,9.5 -9.5,-9.5 -9.5,-9.5 C-9.5,-9.5 9.5,-9.5 9.5,-9.5z"></path></g></g><g transform="matrix(1,0,0,1,81,235)" opacity="1" style="display: block;"><g opacity="1" transform="matrix(2,0,0,2,0,0)"><path fill="rgb(155,223,172)" fill-opacity="1" d=" M0.5,-19.5 C0.5,-19.5 0.5,19.5 0.5,19.5 C0.5,19.5 -0.5,19.5 -0.5,19.5 C-0.5,19.5 -0.5,-19.5 -0.5,-19.5 C-0.5,-19.5 0.5,-19.5 0.5,-19.5z"></path></g></g><g transform="matrix(1,0,0,1,81,235)" opacity="1" style="display: block;"><g opacity="1" transform="matrix(0,-2,2,0,0,0)"><path fill="rgb(155,223,172)" fill-opacity="1" d=" M0.5,-19.5 C0.5,-19.5 0.5,19.5 0.5,19.5 C0.5,19.5 -0.5,19.5 -0.5,19.5 C-0.5,19.5 -0.5,-19.5 -0.5,-19.5 C-0.5,-19.5 0.5,-19.5 0.5,-19.5z"></path></g></g></g></g><g transform="matrix(1,0,0,1,101,215)" opacity="1" style="display: block;"><g opacity="1" transform="matrix(2,0,0,2,0,0)"><path fill="rgb(255,255,255)" fill-opacity="1" d=" M3.61899995803833,0 C3.61899995803833,0 3.61899995803833,0 3.61899995803833,0 C3.61899995803833,0.37446415424346924 3.3149640560150146,0.6784999966621399 2.940500020980835,0.6784999966621399 C2.940500020980835,0.6784999966621399 -2.940500020980835,0.6784999966621399 -2.940500020980835,0.6784999966621399 C-3.3149640560150146,0.6784999966621399 -3.61899995803833,0.37446415424346924 -3.61899995803833,0 C-3.61899995803833,0 -3.61899995803833,0 -3.61899995803833,0 C-3.61899995803833,-0.37446415424346924 -3.3149640560150146,-0.6784999966621399 -2.940500020980835,-0.6784999966621399 C-2.940500020980835,-0.6784999966621399 2.940500020980835,-0.6784999966621399 2.940500020980835,-0.6784999966621399 C3.3149640560150146,-0.6784999966621399 3.61899995803833,-0.37446415424346924 3.61899995803833,0z"></path></g></g><g filter="url(#__lottie_element_29)" transform="matrix(1,0,0,1,101,255)" opacity="1" style="display: block;"><g opacity="1" transform="matrix(2,0,0,2,0,0)"><path fill="rgb(248,251,255)" fill-opacity="1" d=" M3.1665000915527344,1.4045000076293945 C3.1665000915527344,1.4045000076293945 3.1665000915527344,1.7614998817443848 3.1665000915527344,1.7614998817443848 C3.1665000915527344,2.037449836730957 2.9424500465393066,2.2614998817443848 2.6665000915527344,2.2614998817443848 C2.6665000915527344,2.2614998817443848 -2.6665000915527344,2.2614998817443848 -2.6665000915527344,2.2614998817443848 C-2.9424500465393066,2.2614998817443848 -3.1665000915527344,2.037449836730957 -3.1665000915527344,1.7614998817443848 C-3.1665000915527344,1.7614998817443848 -3.1665000915527344,1.4045000076293945 -3.1665000915527344,1.4045000076293945 C-3.1665000915527344,1.1285499334335327 -2.9424500465393066,0.9044999480247498 -2.6665000915527344,0.9044999480247498 C-2.6665000915527344,0.9044999480247498 2.6665000915527344,0.9044999480247498 2.6665000915527344,0.9044999480247498 C2.9424500465393066,0.9044999480247498 3.1665000915527344,1.1285499334335327 3.1665000915527344,1.4045000076293945z M3.1665000915527344,-1.7614998817443848 C3.1665000915527344,-1.7614998817443848 3.1665000915527344,-1.4045000076293945 3.1665000915527344,-1.4045000076293945 C3.1665000915527344,-1.1285499334335327 2.9424500465393066,-0.9044999480247498 2.6665000915527344,-0.9044999480247498 C2.6665000915527344,-0.9044999480247498 -2.6665000915527344,-0.9044999480247498 -2.6665000915527344,-0.9044999480247498 C-2.9424500465393066,-0.9044999480247498 -3.1665000915527344,-1.1285499334335327 -3.1665000915527344,-1.4045000076293945 C-3.1665000915527344,-1.4045000076293945 -3.1665000915527344,-1.7614998817443848 -3.1665000915527344,-1.7614998817443848 C-3.1665000915527344,-2.037449836730957 -2.9424500465393066,-2.2614998817443848 -2.6665000915527344,-2.2614998817443848 C-2.6665000915527344,-2.2614998817443848 2.6665000915527344,-2.2614998817443848 2.6665000915527344,-2.2614998817443848 C2.9424500465393066,-2.2614998817443848 3.1665000915527344,-2.037449836730957 3.1665000915527344,-1.7614998817443848z"></path></g></g><g fill="rgb(17,17,17)" font-size="16" font-family="Apple SD Gothic Neo" font-style="normal" font-weight="700" aria-label="대출 이자
계산해보기" transform="matrix(2,0,0,2,38,88.16799926757812)" opacity="1" style="display: block;"><g stroke-linecap="butt" stroke-linejoin="round" stroke-miterlimit="4" transform="matrix(1,0,0,1,0,0)" opacity="1" style="display: inherit;"><g><g transform="matrix(1,0,0,1,0,0)" opacity="1" style="display: block;"><path d=" M2.79,-3.67 C2.79,-3.67 2.79,-9.89 2.79,-9.89 C3.98,-9.89 5.16,-9.88 6.33,-9.88 C6.33,-9.88 6.33,-11.38 6.33,-11.38 C6.33,-11.38 0.9,-11.38 0.9,-11.38 C0.9,-11.38 0.9,-2.13 0.9,-2.13 C0.9,-2.13 2.27,-2.13 2.27,-2.13 C3.93,-2.13 6.04,-2.22 7.12,-2.51 C7.12,-2.51 6.94,-4 6.94,-4 C5.98,-3.75 4.25,-3.63 2.79,-3.67z M12.7,1.27 C12.7,1.27 12.7,-13.08 12.7,-13.08 C12.7,-13.08 10.89,-13.08 10.89,-13.08 C10.89,-13.08 10.89,-7.43 10.89,-7.43 C10.89,-7.43 9.62,-7.43 9.62,-7.43 C9.62,-7.43 9.62,-12.83 9.62,-12.83 C9.62,-12.83 7.85,-12.83 7.85,-12.83 C7.85,-12.83 7.85,0.61 7.85,0.61 C7.85,0.61 9.62,0.61 9.62,0.61 C9.62,0.61 9.62,-5.93 9.62,-5.93 C9.62,-5.93 10.89,-5.93 10.89,-5.93 C10.89,-5.93 10.89,1.27 10.89,1.27 C10.89,1.27 12.7,1.27 12.7,1.27z"></path><g opacity="1" transform="matrix(0.1599999964237213,0,0,0.1599999964237213,0,0)"></g></g></g></g><g stroke-linecap="butt" stroke-linejoin="round" stroke-miterlimit="4" transform="matrix(1,0,0,1,13.84000015258789,0)" opacity="1" style="display: inherit;"><g><g transform="matrix(1,0,0,1,0,0)" opacity="1" style="display: block;"><path d=" M4.58,-11.57 C4.58,-11.57 9.35,-11.57 9.35,-11.57 C9.35,-11.57 9.35,-12.99 9.35,-12.99 C9.35,-12.99 4.58,-12.99 4.58,-12.99 C4.58,-12.99 4.58,-11.57 4.58,-11.57z M12.89,-8.15 C10.88,-8.17 8.93,-8.73 8.2,-9.6 C8.2,-9.6 12.17,-9.6 12.17,-9.6 C12.17,-9.6 12.17,-11.02 12.17,-11.02 C12.17,-11.02 1.76,-11.02 1.76,-11.02 C1.76,-11.02 1.76,-9.6 1.76,-9.6 C1.76,-9.6 5.77,-9.6 5.77,-9.6 C5.09,-8.73 3.19,-8.14 1,-8.15 C1,-8.15 1.76,-6.67 1.76,-6.67 C4.04,-6.78 6.14,-7.56 6.96,-8.7 C7.82,-7.57 10.05,-6.82 12.17,-6.67 C12.17,-6.67 12.89,-8.15 12.89,-8.15z M12.38,1.18 C12.38,1.18 12.38,-0.21 12.38,-0.21 C12.38,-0.21 3.85,-0.21 3.85,-0.21 C3.85,-0.21 3.85,-0.87 3.85,-0.87 C3.85,-0.87 11.81,-0.87 11.81,-0.87 C11.81,-0.87 11.81,-4.21 11.81,-4.21 C11.81,-4.21 7.88,-4.21 7.88,-4.21 C7.88,-4.21 7.88,-4.9 7.88,-4.9 C7.88,-4.9 13.45,-4.9 13.45,-4.9 C13.45,-4.9 13.45,-6.3 13.45,-6.3 C13.45,-6.3 0.48,-6.3 0.48,-6.3 C0.48,-6.3 0.48,-4.9 0.48,-4.9 C0.48,-4.9 5.99,-4.9 5.99,-4.9 C5.99,-4.9 5.99,-4.21 5.99,-4.21 C5.99,-4.21 1.95,-4.21 1.95,-4.21 C1.95,-4.21 1.95,-2.82 1.95,-2.82 C1.95,-2.82 9.94,-2.82 9.94,-2.82 C9.94,-2.82 9.94,-2.18 9.94,-2.18 C9.94,-2.18 1.95,-2.18 1.95,-2.18 C1.95,-2.18 1.95,1.18 1.95,1.18 C1.95,1.18 12.38,1.18 12.38,1.18z"></path><g opacity="1" transform="matrix(0.1599999964237213,0,0,0.1599999964237213,0,0)"></g></g></g></g><g stroke-linecap="butt" stroke-linejoin="round" stroke-miterlimit="4" transform="matrix(1,0,0,1,27.68000030517578,0)" opacity="1" style="display: inherit;"><g><g style="display: none;"></g></g></g><g stroke-linecap="butt" stroke-linejoin="round" stroke-miterlimit="4" transform="matrix(1,0,0,1,31.88800048828125,0)" opacity="1" style="display: inherit;"><g><g transform="matrix(1,0,0,1,0,0)" opacity="1" style="display: block;"><path d=" M6.51,-6.96 C6.51,-4.71 5.7,-3.37 4.59,-3.37 C3.51,-3.37 2.72,-4.71 2.72,-6.96 C2.72,-9.23 3.51,-10.59 4.59,-10.59 C5.7,-10.59 6.51,-9.23 6.51,-6.96z M0.89,-6.96 C0.89,-3.95 2.26,-1.85 4.59,-1.85 C6.94,-1.85 8.31,-3.96 8.31,-6.96 C8.31,-9.99 6.94,-12.1 4.59,-12.1 C2.26,-12.1 0.89,-9.99 0.89,-6.96z M12.34,1.27 C12.34,1.27 12.34,-13.08 12.34,-13.08 C12.34,-13.08 10.47,-13.08 10.47,-13.08 C10.47,-13.08 10.47,1.27 10.47,1.27 C10.47,1.27 12.34,1.27 12.34,1.27z"></path><g opacity="1" transform="matrix(0.1599999964237213,0,0,0.1599999964237213,0,0)"></g></g></g></g><g stroke-linecap="butt" stroke-linejoin="round" stroke-miterlimit="4" transform="matrix(1,0,0,1,45.727996826171875,0)" opacity="1" style="display: inherit;"><g><g transform="matrix(1,0,0,1,0,0)" opacity="1" style="display: block;"><path d=" M11.71,-13.08 C11.71,-13.08 9.83,-13.08 9.83,-13.08 C9.83,-13.08 9.83,1.27 9.83,1.27 C9.83,1.27 11.71,1.27 11.71,1.27 C11.71,1.27 11.71,-5.99 11.71,-5.99 C11.71,-5.99 13.76,-5.99 13.76,-5.99 C13.76,-5.99 13.76,-7.56 13.76,-7.56 C13.76,-7.56 11.71,-7.56 11.71,-7.56 C11.71,-7.56 11.71,-13.08 11.71,-13.08z M9.15,-3.43 C6.99,-4.62 5.61,-6.67 5.61,-9.7 C5.61,-9.7 5.61,-10.07 5.61,-10.07 C5.61,-10.07 8.41,-10.07 8.41,-10.07 C8.41,-10.07 8.41,-11.62 8.41,-11.62 C8.41,-11.62 0.76,-11.62 0.76,-11.62 C0.76,-11.62 0.76,-10.07 0.76,-10.07 C0.76,-10.07 3.66,-10.07 3.66,-10.07 C3.66,-10.07 3.66,-9.68 3.66,-9.68 C3.66,-6.67 2.4,-4.46 0.02,-3.16 C0.02,-3.16 1.18,-1.76 1.18,-1.76 C2.85,-2.58 4.3,-4.5 4.66,-5.96 C5.08,-4.58 6.78,-2.72 8.1,-2.06 C8.1,-2.06 9.15,-3.43 9.15,-3.43z"></path><g opacity="1" transform="matrix(0.1599999964237213,0,0,0.1599999964237213,0,0)"></g></g></g></g><g stroke-linecap="butt" stroke-linejoin="round" stroke-miterlimit="4" style="display: inherit;"><g><g style="display: none;"></g></g></g><g stroke-linecap="butt" stroke-linejoin="round" stroke-miterlimit="4" transform="matrix(1,0,0,1,0,25)" opacity="1" style="display: inherit;"><g><g transform="matrix(1,0,0,1,0,0)" opacity="1" style="display: block;"><path d=" M6.46,-11.39 C6.46,-11.39 1.03,-11.39 1.03,-11.39 C1.03,-11.39 1.03,-9.88 1.03,-9.88 C1.03,-9.88 4.64,-9.88 4.64,-9.88 C4.42,-7.03 2.9,-4.51 0.13,-2.84 C0.13,-2.84 1.35,-1.53 1.35,-1.53 C4.85,-3.83 6.48,-7.11 6.46,-11.39z M12.7,1.27 C12.7,1.27 12.7,-13.08 12.7,-13.08 C12.7,-13.08 10.91,-13.08 10.91,-13.08 C10.91,-13.08 10.91,1.27 10.91,1.27 C10.91,1.27 12.7,1.27 12.7,1.27z M9.83,0.61 C9.83,0.61 9.83,-12.81 9.83,-12.81 C9.83,-12.81 8.07,-12.81 8.07,-12.81 C8.07,-12.81 8.07,-9.31 8.07,-9.31 C8.07,-9.31 6.61,-9.31 6.61,-9.31 C6.61,-9.31 6.61,-7.78 6.61,-7.78 C6.61,-7.78 8.07,-7.78 8.07,-7.78 C8.07,-7.78 8.07,-5.75 8.07,-5.75 C8.07,-5.75 6.25,-5.75 6.25,-5.75 C6.25,-5.75 6.25,-4.22 6.25,-4.22 C6.25,-4.22 8.07,-4.22 8.07,-4.22 C8.07,-4.22 8.07,0.61 8.07,0.61 C8.07,0.61 9.83,0.61 9.83,0.61z"></path><g opacity="1" transform="matrix(0.1599999964237213,0,0,0.1599999964237213,0,0)"></g></g></g></g><g stroke-linecap="butt" stroke-linejoin="round" stroke-miterlimit="4" transform="matrix(1,0,0,1,13.84000015258789,25)" opacity="1" style="display: inherit;"><g><g transform="matrix(1,0,0,1,0,0)" opacity="1" style="display: block;"><path d=" M8.85,-6.3 C7.17,-6.85 5.51,-8.64 5.51,-10.86 C5.51,-10.86 5.51,-12.28 5.51,-12.28 C5.51,-12.28 3.58,-12.28 3.58,-12.28 C3.58,-12.28 3.58,-10.76 3.58,-10.76 C3.58,-8.59 2.22,-6.67 0.14,-5.91 C0.14,-5.91 1.27,-4.43 1.27,-4.43 C2.63,-4.95 4.12,-6.43 4.56,-7.88 C5.17,-6.56 6.69,-5.25 7.77,-4.83 C7.77,-4.83 8.85,-6.3 8.85,-6.3z M12.07,0.9 C12.07,0.9 12.07,-0.58 12.07,-0.58 C12.07,-0.58 4.46,-0.58 4.46,-0.58 C4.46,-0.58 4.46,-3.75 4.46,-3.75 C4.46,-3.75 2.58,-3.75 2.58,-3.75 C2.58,-3.75 2.58,0.9 2.58,0.9 C2.58,0.9 12.07,0.9 12.07,0.9z M11.71,-13.08 C11.71,-13.08 9.83,-13.08 9.83,-13.08 C9.83,-13.08 9.83,-2.67 9.83,-2.67 C9.83,-2.67 11.71,-2.67 11.71,-2.67 C11.71,-2.67 11.71,-7.41 11.71,-7.41 C11.71,-7.41 13.76,-7.41 13.76,-7.41 C13.76,-7.41 13.76,-8.98 13.76,-8.98 C13.76,-8.98 11.71,-8.98 11.71,-8.98 C11.71,-8.98 11.71,-13.08 11.71,-13.08z"></path><g opacity="1" transform="matrix(0.1599999964237213,0,0,0.1599999964237213,0,0)"></g></g></g></g><g stroke-linecap="butt" stroke-linejoin="round" stroke-miterlimit="4" transform="matrix(1,0,0,1,27.68000030517578,25)" opacity="1" style="display: inherit;"><g><g transform="matrix(1,0,0,1,0,0)" opacity="1" style="display: block;"><path d=" M2.03,-10.47 C2.03,-10.47 5.9,-10.47 5.9,-10.47 C5.9,-10.47 5.9,-11.97 5.9,-11.97 C5.9,-11.97 2.03,-11.97 2.03,-11.97 C2.03,-11.97 2.03,-10.47 2.03,-10.47z M5.37,-4.64 C5.37,-3.77 4.75,-3.14 3.92,-3.14 C3.09,-3.14 2.48,-3.74 2.48,-4.64 C2.48,-5.53 3.09,-6.14 3.92,-6.14 C4.75,-6.14 5.37,-5.53 5.37,-4.64z M0.47,-8.15 C0.47,-8.15 7.32,-8.15 7.32,-8.15 C7.32,-8.15 7.32,-9.65 7.32,-9.65 C7.32,-9.65 0.47,-9.65 0.47,-9.65 C0.47,-9.65 0.47,-8.15 0.47,-8.15z M7.06,-4.64 C7.06,-6.45 5.78,-7.62 3.92,-7.62 C2.08,-7.62 0.77,-6.46 0.77,-4.64 C0.77,-2.93 2.06,-1.66 3.92,-1.66 C5.78,-1.66 7.06,-2.84 7.06,-4.64z M12.7,1.27 C12.7,1.27 12.7,-13.08 12.7,-13.08 C12.7,-13.08 10.91,-13.08 10.91,-13.08 C10.91,-13.08 10.91,-7.28 10.91,-7.28 C10.91,-7.28 9.72,-7.28 9.72,-7.28 C9.72,-7.28 9.72,-12.83 9.72,-12.83 C9.72,-12.83 7.96,-12.83 7.96,-12.83 C7.96,-12.83 7.96,0.61 7.96,0.61 C7.96,0.61 9.72,0.61 9.72,0.61 C9.72,0.61 9.72,-5.77 9.72,-5.77 C9.72,-5.77 10.91,-5.77 10.91,-5.77 C10.91,-5.77 10.91,1.27 10.91,1.27 C10.91,1.27 12.7,1.27 12.7,1.27z"></path><g opacity="1" transform="matrix(0.1599999964237213,0,0,0.1599999964237213,0,0)"></g></g></g></g><g stroke-linecap="butt" stroke-linejoin="round" stroke-miterlimit="4" transform="matrix(1,0,0,1,41.519996643066406,25)" opacity="1" style="display: inherit;"><g><g transform="matrix(1,0,0,1,0,0)" opacity="1" style="display: block;"><path d=" M10.02,-6.3 C10.02,-6.3 3.92,-6.3 3.92,-6.3 C3.92,-6.3 3.92,-8.43 3.92,-8.43 C3.92,-8.43 10.02,-8.43 10.02,-8.43 C10.02,-8.43 10.02,-6.3 10.02,-6.3z M13.45,-0.52 C13.45,-0.52 13.45,-2.01 13.45,-2.01 C13.45,-2.01 7.88,-2.01 7.88,-2.01 C7.88,-2.01 7.88,-4.8 7.88,-4.8 C7.88,-4.8 11.91,-4.8 11.91,-4.8 C11.91,-4.8 11.91,-12.13 11.91,-12.13 C11.91,-12.13 10.02,-12.13 10.02,-12.13 C10.02,-12.13 10.02,-9.88 10.02,-9.88 C10.02,-9.88 3.92,-9.88 3.92,-9.88 C3.92,-9.88 3.92,-12.1 3.92,-12.1 C3.92,-12.1 2.05,-12.1 2.05,-12.1 C2.05,-12.1 2.05,-4.8 2.05,-4.8 C2.05,-4.8 5.99,-4.8 5.99,-4.8 C5.99,-4.8 5.99,-2.01 5.99,-2.01 C5.99,-2.01 0.48,-2.01 0.48,-2.01 C0.48,-2.01 0.48,-0.52 0.48,-0.52 C0.48,-0.52 13.45,-0.52 13.45,-0.52z"></path><g opacity="1" transform="matrix(0.1599999964237213,0,0,0.1599999964237213,0,0)"></g></g></g></g><g stroke-linecap="butt" stroke-linejoin="round" stroke-miterlimit="4" transform="matrix(1,0,0,1,55.3599967956543,25)" opacity="1" style="display: inherit;"><g><g transform="matrix(1,0,0,1,0,0)" opacity="1" style="display: block;"><path d=" M7.94,-11.59 C7.94,-11.59 1.24,-11.59 1.24,-11.59 C1.24,-11.59 1.24,-10.02 1.24,-10.02 C1.24,-10.02 5.91,-10.02 5.91,-10.02 C5.66,-7.17 3.51,-4.17 0.37,-2.74 C0.37,-2.74 1.53,-1.32 1.53,-1.32 C5.91,-3.71 7.83,-7.25 7.94,-11.59z M12.36,1.27 C12.36,1.27 12.36,-13.08 12.36,-13.08 C12.36,-13.08 10.47,-13.08 10.47,-13.08 C10.47,-13.08 10.47,1.27 10.47,1.27 C10.47,1.27 12.36,1.27 12.36,1.27z"></path><g opacity="1" transform="matrix(0.1599999964237213,0,0,0.1599999964237213,0,0)"></g></g></g></g></g><g transform="matrix(6.239999771118164,0,0,6.239999771118164,61.112998962402344,255.38299560546875)" opacity="1" style="display: block;"><g opacity="1" transform="matrix(0.23596152663230896,-0.23596152663230896,0.23596152663230896,0.23596152663230896,0,0)"><path fill="rgb(255,255,255)" fill-opacity="1" d=" M3.61899995803833,0 C3.61899995803833,0 3.61899995803833,0 3.61899995803833,0 C3.61899995803833,0.37446415424346924 3.3149640560150146,0.6784999966621399 2.940500020980835,0.6784999966621399 C2.940500020980835,0.6784999966621399 -2.940500020980835,0.6784999966621399 -2.940500020980835,0.6784999966621399 C-3.3149640560150146,0.6784999966621399 -3.61899995803833,0.37446415424346924 -3.61899995803833,0 C-3.61899995803833,0 -3.61899995803833,0 -3.61899995803833,0 C-3.61899995803833,-0.37446415424346924 -3.3149640560150146,-0.6784999966621399 -2.940500020980835,-0.6784999966621399 C-2.940500020980835,-0.6784999966621399 2.940500020980835,-0.6784999966621399 2.940500020980835,-0.6784999966621399 C3.3149640560150146,-0.6784999966621399 3.61899995803833,-0.37446415424346924 3.61899995803833,0z"></path></g></g><g transform="matrix(6.239999771118164,0,0,6.239999771118164,57.10900115966797,251.37899780273438)" opacity="1" style="display: block;"><g opacity="1" transform="matrix(0.3337000012397766,0,0,0.3337000012397766,0,0)"><path fill="rgb(255,255,255)" fill-opacity="1" d=" M0,-0.7914999723434448 C0.4368288218975067,-0.7914999723434448 0.7914999723434448,-0.4368288218975067 0.7914999723434448,0 C0.7914999723434448,0.4368288218975067 0.4368288218975067,0.7914999723434448 0,0.7914999723434448 C-0.4368288218975067,0.7914999723434448 -0.7914999723434448,0.4368288218975067 -0.7914999723434448,0 C-0.7914999723434448,-0.4368288218975067 -0.4368288218975067,-0.7914999723434448 0,-0.7914999723434448z"></path></g></g><g transform="matrix(6.239999771118164,0,0,6.239999771118164,65.11599731445312,259.385986328125)" opacity="1" style="display: block;"><g opacity="1" transform="matrix(0.3337000012397766,0,0,0.3337000012397766,0,0)"><path fill="rgb(255,255,255)" fill-opacity="1" d=" M0,-0.7914999723434448 C0.4368288218975067,-0.7914999723434448 0.7914999723434448,-0.4368288218975067 0.7914999723434448,0 C0.7914999723434448,0.4368288218975067 0.4368288218975067,0.7914999723434448 0,0.7914999723434448 C-0.4368288218975067,0.7914999723434448 -0.7914999723434448,0.4368288218975067 -0.7914999723434448,0 C-0.7914999723434448,-0.4368288218975067 -0.4368288218975067,-0.7914999723434448 0,-0.7914999723434448z"></path></g></g><g transform="matrix(5.599999904632568,0,0,5.599999904632568,61.9630012512207,216.16299438476562)" opacity="1" style="display: block;"><g opacity="1" transform="matrix(0,-0.3337000012397766,0.3337000012397766,0,0,0)"><path fill="rgb(255,255,255)" fill-opacity="1" d=" M3.61899995803833,0 C3.61899995803833,0 3.61899995803833,0 3.61899995803833,0 C3.61899995803833,0.37446415424346924 3.3149640560150146,0.6784999966621399 2.940500020980835,0.6784999966621399 C2.940500020980835,0.6784999966621399 -2.940500020980835,0.6784999966621399 -2.940500020980835,0.6784999966621399 C-3.3149640560150146,0.6784999966621399 -3.61899995803833,0.37446415424346924 -3.61899995803833,0 C-3.61899995803833,0 -3.61899995803833,0 -3.61899995803833,0 C-3.61899995803833,-0.37446415424346924 -3.3149640560150146,-0.6784999966621399 -2.940500020980835,-0.6784999966621399 C-2.940500020980835,-0.6784999966621399 2.940500020980835,-0.6784999966621399 2.940500020980835,-0.6784999966621399 C3.3149640560150146,-0.6784999966621399 3.61899995803833,-0.37446415424346924 3.61899995803833,0z"></path></g></g><g transform="matrix(5.599999904632568,0,0,5.599999904632568,61.9630012512207,216.16299438476562)" opacity="1" style="display: block;"><g opacity="1" transform="matrix(0.3337000012397766,0,0,0.3337000012397766,0,0)"><path fill="rgb(255,255,255)" fill-opacity="1" d=" M3.61899995803833,0 C3.61899995803833,0 3.61899995803833,0 3.61899995803833,0 C3.61899995803833,0.37446415424346924 3.3149640560150146,0.6784999966621399 2.940500020980835,0.6784999966621399 C2.940500020980835,0.6784999966621399 -2.940500020980835,0.6784999966621399 -2.940500020980835,0.6784999966621399 C-3.3149640560150146,0.6784999966621399 -3.61899995803833,0.37446415424346924 -3.61899995803833,0 C-3.61899995803833,0 -3.61899995803833,0 -3.61899995803833,0 C-3.61899995803833,-0.37446415424346924 -3.3149640560150146,-0.6784999966621399 -2.940500020980835,-0.6784999966621399 C-2.940500020980835,-0.6784999966621399 2.940500020980835,-0.6784999966621399 2.940500020980835,-0.6784999966621399 C3.3149640560150146,-0.6784999966621399 3.61899995803833,-0.37446415424346924 3.61899995803833,0z"></path></g></g></g></g></svg>